<svg width="188" height="172" viewBox="0 0 188 172" fill="none" xmlns="http://www.w3.org/2000/svg">
<path d="M82.4 142.695C121.804 142.695 153.748 110.752 153.748 71.3477C153.748 31.9435 121.804 0 82.4 0C42.9957 0 11.0522 31.9435 11.0522 71.3477C11.0522 110.752 42.9957 142.695 82.4 142.695Z" fill="#FFD4D6"/>
<path d="M92.7004 97.7352C92.7004 97.7352 72.8122 121.871 65.7779 121.242C58.7435 120.613 53.9233 108.849 53.9233 108.849C53.9233 108.849 54.1646 108.72 54.5738 108.474C56.6328 107.259 62.965 103.236 64.4468 98.9413C65.8812 96.6109 76.3143 79.695 79.489 75.3787C82.9049 70.7394 86.9239 70.5585 86.9239 70.5585C89.1897 74.2846 92.05 77.119 95.5951 77.6532C96.0819 77.7264 96.5557 77.7738 97.008 77.7953C97.2234 79.3116 98.6492 87.048 105.597 91.0067C105.597 91.0067 105.864 85.6179 109.427 85.1398C109.427 85.1398 113.2 83.0721 116.315 86.0961C116.315 86.0961 121.251 80.7977 116.315 65.9192L112.791 62.7316L112.787 62.7273L111.171 58.8849C111.171 58.8849 129.199 57.9846 133.369 61.8485C137.538 65.7082 164.211 101.005 164.211 101.005L125.412 131.128C125.412 131.128 101.889 107.798 92.7004 97.7352Z" fill="white"/>
<path d="M116.315 65.9191C121.251 80.7975 116.315 86.0959 116.315 86.0959C113.2 83.072 109.427 85.1396 109.427 85.1396L114.458 66.6944L112.791 62.7314L116.315 65.9191Z" fill="#FFD7D8"/>
<path d="M104.21 81.6979L109.427 85.1397C105.864 85.6178 105.597 91.0067 105.597 91.0067C98.649 87.048 97.2232 79.3115 97.0078 77.7952C97.4472 77.8168 97.8736 77.8125 98.2786 77.7866L104.21 81.6979Z" fill="#FFD7D8"/>
<path d="M92.5796 97.5414C90.4094 94.8629 88.2392 92.1845 86.0686 89.5056C85.8942 89.2902 85.5909 89.5964 85.7641 89.8101C87.9342 92.4886 90.1044 95.167 92.275 97.8459C92.4495 98.0613 92.7527 97.7546 92.5796 97.5414Z" fill="#2E303D"/>
<path d="M90.6779 98.0688C89.1414 97.4093 87.6053 96.7498 86.0687 96.0903C85.8167 95.9822 85.5971 96.3531 85.8512 96.4621C87.3877 97.1216 88.9238 97.7811 90.4603 98.4406C90.7123 98.5491 90.932 98.1782 90.6779 98.0688Z" fill="#2E303D"/>
<path d="M124.973 110.355C123.02 107.123 121.066 103.892 119.113 100.66C117.169 97.4443 115.224 94.2282 113.28 91.0122C112.179 89.1896 111.077 87.3675 109.975 85.5449C109.832 85.308 109.459 85.5243 109.603 85.7625C111.557 88.994 113.51 92.2252 115.464 95.4567C117.408 98.6728 119.352 101.889 121.296 105.105C122.398 106.927 123.5 108.75 124.602 110.572C124.745 110.809 125.117 110.593 124.973 110.355Z" fill="#2E303D"/>
<path d="M64.7618 97.3518C64.7403 97.8817 64.6326 98.4115 64.4473 98.9413C62.9655 103.236 56.6333 107.259 54.5743 108.474L53.9239 106.092C53.9239 106.092 50.5855 106.841 48.1431 104.726C48.0784 104.851 47.9751 104.963 47.8544 105.041C47.5098 105.252 47.0748 105.252 46.6699 105.218C44.8391 105.054 43.0558 104.352 41.6041 103.219C40.7469 102.551 39.9758 101.685 39.7389 100.626C39.5106 99.6219 39.894 98.4287 40.7857 97.9377C40.7512 97.7783 40.7297 97.6146 40.721 97.4509C40.6823 96.5162 41.1733 95.6202 41.841 94.9654C42.457 94.3537 43.2195 93.9187 43.9819 93.5051C43.9905 93.4664 43.9991 93.4319 44.0078 93.3974C44.193 92.7341 44.6668 92.1827 45.2182 91.7735C45.7179 91.403 46.2865 91.136 46.8551 90.8775C44.0939 89.456 41.4447 87.8794 41.7118 87.173C42.2502 85.7385 47.9061 86.2468 53.6266 88.2499C59.3428 90.2572 61.2123 93.2467 61.2123 93.2467C62.9914 92.4584 64.9384 92.6135 64.7618 97.3518Z" fill="#FF9971"/>
<path d="M62.6661 98.1582C61.3333 98.7302 60.0001 99.3019 58.6673 99.8739C57.9928 100.163 57.3178 100.453 56.6432 100.742C56.0884 100.98 55.4134 101.368 54.7909 101.175C54.1207 100.968 54.1138 100.217 54.3705 99.6796C54.6272 99.142 55.0287 98.6514 55.3996 98.1888C56.1323 97.2756 56.9607 96.4386 57.8644 95.6942C58.9129 94.8306 60.0677 94.1008 61.2911 93.5116C61.5409 93.3914 61.3226 93.0196 61.0736 93.1398C58.7091 94.2792 56.6083 95.9579 54.9856 98.0216C54.3528 98.8267 53.1596 100.247 54.1103 101.255C54.5437 101.715 55.2411 101.717 55.8041 101.542C56.5036 101.326 57.1765 100.979 57.848 100.691C59.5267 99.9704 61.205 99.2502 62.8836 98.5299C63.1373 98.4214 62.9185 98.0501 62.6661 98.1582Z" fill="#2E303D"/>
<path d="M52.1579 93.8573C50.4866 92.8597 48.8156 91.8616 47.1443 90.864C46.9056 90.7214 46.689 91.094 46.9267 91.2362L51.9404 94.2295C52.179 94.3721 52.3957 93.9995 52.1579 93.8573Z" fill="#2E303D"/>
<path d="M52.9378 101.927C52.8917 101.52 52.7073 101.143 52.5509 100.769C52.3791 100.358 52.2072 99.9467 52.0349 99.5349C51.244 97.6421 50.4527 95.7494 49.6618 93.8566C49.5567 93.6046 49.1397 93.7153 49.2466 93.9712C49.8862 95.5017 50.5259 97.0326 51.1656 98.5631C51.4891 99.3367 51.8122 100.11 52.1352 100.884C52.3312 101.354 52.9352 102.589 52.0642 102.788C51.4534 102.928 50.7404 102.318 50.2769 101.992C49.7415 101.615 49.2319 101.203 48.7499 100.76C47.7919 99.8817 46.9429 98.8857 46.2291 97.7994C45.4218 96.5713 44.7899 95.2363 44.3561 93.8321C44.2747 93.568 43.8586 93.6804 43.9409 93.9466C44.78 96.6639 46.3493 99.1425 48.4454 101.065C48.9545 101.532 49.4947 101.967 50.0594 102.364C50.5957 102.741 51.238 103.245 51.9285 103.234C52.6332 103.222 53.011 102.576 52.9378 101.927Z" fill="#2E303D"/>
<path d="M49.3181 102.153C49.1532 101.935 48.7788 102.149 48.9464 102.37C49.238 102.756 49.2673 103.282 48.9253 103.65C48.5859 104.015 48.0823 104.019 47.6485 103.827C47.2066 103.633 46.8206 103.304 46.4441 103.008C46.0517 102.7 45.6666 102.383 45.2888 102.056C43.7889 100.763 42.41 99.3332 41.1656 97.7924C40.9915 97.5765 40.6883 97.8832 40.861 98.0969C42.0043 99.5124 43.2608 100.834 44.6211 102.043C45.2836 102.632 45.9694 103.197 46.6793 103.728C47.303 104.195 48.118 104.64 48.8848 104.22C49.6292 103.813 49.8264 102.826 49.3181 102.153Z" fill="#2E303D"/>
<path d="M114.458 66.6946L109.427 85.1398L104.21 81.698C109.577 74.0735 108.531 65.019 108.531 65.019C108.531 65.019 107.695 77.2138 98.2785 77.7867C97.8736 77.8125 97.4471 77.8169 97.0078 77.7953C96.5555 77.7738 96.0816 77.7264 95.5949 77.6532C92.0497 77.119 89.1895 74.2846 86.9237 70.5585C82.4222 63.1581 80.2469 52.2598 79.6567 48.9128C84.9594 48.2193 90.1113 45.9923 95.1426 43.9849C96.6976 43.3646 98.3388 42.7486 100.006 42.9339C101.712 43.1191 103.241 44.1357 104.387 45.415C105.39 46.5393 106.14 47.8575 106.846 49.1885C107.044 47.9738 107.867 44.3295 110.624 45.3806C110.943 45.5012 111.227 45.695 111.473 45.9406C113.76 48.2494 112.92 55.4173 110.327 56.8776L111.171 58.8849L112.787 62.7273L112.791 62.7316L114.458 66.6946Z" fill="#FF9971"/>
<path d="M108.531 65.019C108.531 65.019 109.578 74.0736 104.21 81.6981L98.2788 77.7868C107.695 77.2139 108.531 65.019 108.531 65.019Z" fill="#2E303D"/>
<path d="M111.008 39.4271C110.754 37.8074 110.357 36.1231 109.276 34.8911C108.307 33.7914 106.633 33.2069 105.319 33.7483C105.696 32.3023 105.513 30.7209 104.771 29.4149C104.004 28.0675 102.689 27.0504 101.189 26.6597C97.5361 25.7086 94.2003 28.1123 91.2345 29.8667C89.6493 30.8045 87.9948 31.5558 86.1968 31.9809C84.4449 32.3953 82.627 32.5176 80.8351 32.3466C79.924 32.2596 79.0263 32.0873 78.1428 31.8504C77.2611 31.6139 76.3819 31.3408 75.4669 31.2689C73.9468 31.1491 72.3982 31.7246 71.7865 33.2103C71.2166 34.5943 71.5095 36.2097 72.0639 37.5481C72.4538 38.4889 73.0056 39.3564 73.6845 40.1115C72.0282 39.9392 70.278 40.7861 69.4484 42.2395C68.5093 43.885 68.841 46.1508 70.2108 47.4603C71.3954 48.5932 73.1098 48.955 74.7424 49.0757C76.3965 49.2006 78.0334 49.1273 79.6574 48.912C84.9601 48.2184 90.1119 45.9914 95.1432 43.9841C96.6983 43.3638 98.3395 42.7478 100.007 42.933C101.712 43.1182 103.242 44.1348 104.387 45.4142C105.391 46.5385 106.141 47.8566 106.847 49.1877C107.045 47.9729 107.868 44.3287 110.625 45.3797C110.944 45.5003 111.228 45.6942 111.473 45.9397C111.503 43.7652 111.348 41.5809 111.008 39.4271ZM101.863 28.8609C99.8036 28.12 97.4947 28.6025 95.4874 29.4726C93.4801 30.3384 91.645 31.5704 89.6291 32.4104C85.9461 33.9353 81.7074 34.0688 77.9425 32.7722C76.5469 32.2898 75.022 31.6178 73.6651 32.195C72.6132 32.6426 72.0282 33.7457 71.9158 34.9036C71.9153 34.6439 71.9282 34.3841 71.9718 34.1278C72.0885 33.4386 72.3922 32.7804 72.9423 32.332C73.538 31.8461 74.3366 31.679 75.0892 31.6837C75.977 31.6893 76.8402 31.9404 77.6897 32.1739C78.5172 32.4013 79.3481 32.5909 80.1993 32.7046C83.5019 33.1457 86.9209 32.5836 89.9022 31.0936C92.9588 29.5656 95.7545 27.0069 99.3367 26.8928C100.939 26.8419 102.481 27.4002 103.599 28.5633C104.728 29.7367 105.253 31.3882 105.034 33.0005C105.027 33.0561 105.011 33.1104 105.002 33.1655C105.082 31.3283 103.649 29.5088 101.863 28.8609Z" fill="#2E303D"/>
<path d="M101.944 65.1655C101.944 65.1655 104.339 69.5421 100.686 72.0835C97.0335 74.6293 94.4575 71.0153 94.4575 71.0153L101.944 65.1655Z" fill="white"/>
<path d="M89.4907 57.2354L94.4573 67.117C94.4573 67.117 90.4168 69.3914 89.4907 68.0733C88.5602 66.7552 89.4907 57.2354 89.4907 57.2354Z" fill="#F9785A"/>
<path d="M87.6626 59.4663C88.0438 60.756 87.6264 62.0159 86.7304 62.2804C85.8344 62.5449 84.7993 61.7144 84.4185 60.4247C84.0373 59.135 84.4547 57.875 85.3507 57.6101C86.2467 57.3456 87.2818 58.1766 87.6626 59.4663Z" fill="#2E303D"/>
<path d="M98.144 55.9303C98.5248 57.22 98.1078 58.48 97.2119 58.7445C96.3159 59.009 95.2808 58.1785 94.9 56.8888C94.5187 55.5991 94.9362 54.3391 95.8321 54.0746C96.7277 53.8097 97.7628 54.6406 98.144 55.9303Z" fill="#2E303D"/>
<path d="M85.4842 54.2477C84.6679 54.4424 83.8796 54.7611 83.1465 55.1678C82.7519 55.3866 82.6158 55.9836 82.8695 56.3545C83.1439 56.7556 83.6337 56.8658 84.0563 56.6315C84.238 56.5307 84.425 56.4407 84.6132 56.3532C85.0535 56.1654 85.5066 56.0116 85.9723 55.9005C86.4112 55.7958 86.7007 55.2544 86.5542 54.8301C86.3957 54.3687 85.9546 54.1352 85.4842 54.2477Z" fill="#2E303D"/>
<path d="M97.7612 51.3505C97.5807 51.195 97.3912 51.1394 97.1552 51.1166C96.1119 51.0158 95.0233 51.1778 94.0537 51.5745C93.8357 51.6637 93.6574 51.7752 93.5411 51.9889C93.4403 52.1745 93.4015 52.4416 93.4717 52.6445C93.6113 53.0494 94.0955 53.4091 94.5422 53.2265C94.9432 53.0623 95.3597 52.9478 95.7858 52.8711C96.251 52.8095 96.7192 52.7944 97.187 52.8392C97.3947 52.8595 97.6626 52.713 97.7991 52.5678C97.9409 52.4171 98.0464 52.172 98.033 51.9618C98.0184 51.7369 97.9378 51.5026 97.7612 51.3505Z" fill="#2E303D"/>
<path d="M105.203 26.503C105.094 26.2492 104.722 26.4681 104.831 26.7205C105.632 28.5749 106.029 30.5835 106.008 32.6021C106.005 32.8795 106.436 32.8795 106.439 32.6021C106.46 30.503 106.035 28.4293 105.203 26.503Z" fill="#2E303D"/>
<path d="M107.176 30.2172C106.992 30.9745 106.808 31.7322 106.624 32.4894C106.559 32.7587 106.974 32.8737 107.039 32.604C107.223 31.8467 107.407 31.089 107.591 30.3318C107.656 30.0625 107.241 29.9475 107.176 30.2172Z" fill="#2E303D"/>
<path d="M104.249 157.795V160.547H65.817L36.521 144.622V142.145L66.377 157.795H104.249Z" fill="#8E8E8E"/>
<path d="M104.249 157.795H66.377L36.521 142.145H74.3935L104.249 157.795Z" fill="#B7B7B7"/>
<path d="M70.3853 156.591H65.7215L62.0449 154.664H66.7088L70.3853 156.591Z" fill="#8E8E8E"/>
<path d="M65.4561 154.016H60.7923L57.1157 152.089H61.7796L65.4561 154.016Z" fill="#8E8E8E"/>
<path d="M61.2862 151.542H56.6223L52.9458 149.615H57.6097L61.2862 151.542Z" fill="#8E8E8E"/>
<path d="M56.358 148.967H51.6941L48.0176 147.04H52.6814L56.358 148.967Z" fill="#8E8E8E"/>
<path d="M76.0142 156.217H71.3503L67.6733 154.29H72.3372L76.0142 156.217Z" fill="#8E8E8E"/>
<path d="M71.8433 153.743H67.1795L63.5029 151.815H68.1668L71.8433 153.743Z" fill="#8E8E8E"/>
<path d="M66.9151 151.167H62.2513L58.5747 149.24H63.2381L66.9151 151.167Z" fill="#8E8E8E"/>
<path d="M77.0313 153.284H72.3675L68.6909 151.356H73.3548L77.0313 153.284Z" fill="#8E8E8E"/>
<path d="M72.8614 150.809H68.1975L64.521 148.882H69.1848L72.8614 150.809Z" fill="#8E8E8E"/>
<path d="M67.9326 148.235H63.2688L59.5918 146.308H64.2556L67.9326 148.235Z" fill="#8E8E8E"/>
<path d="M94.2115 156.824H89.5476L85.8711 154.897H90.5349L94.2115 156.824Z" fill="#8E8E8E"/>
<path d="M89.2828 154.249H84.6189L80.9424 152.322H85.6062L89.2828 154.249Z" fill="#8E8E8E"/>
<path d="M85.1128 151.775H80.449L76.7725 149.848H81.4363L85.1128 151.775Z" fill="#8E8E8E"/>
<path d="M80.1841 149.2H75.5202L71.8433 147.273H76.5071L80.1841 149.2Z" fill="#8E8E8E"/>
<path d="M99.8404 156.449H95.1765L91.5 154.522H96.1638L99.8404 156.449Z" fill="#8E8E8E"/>
<path d="M95.67 153.976H91.0061L87.3296 152.048H91.9934L95.67 153.976Z" fill="#8E8E8E"/>
<path d="M90.7413 151.4H86.0774L82.4009 149.473H87.0647L90.7413 151.4Z" fill="#8E8E8E"/>
<path d="M128.444 171.021H90.5716L71.2344 160.864H109.107L128.444 171.021Z" fill="#D5E0E0"/>
<path d="M102.179 169.801H91.1562L85.5283 166.845H96.5506L102.179 169.801Z" fill="#EC1D24"/>
<path d="M105.62 169.615C105.553 169.615 105.484 169.599 105.42 169.566L92.3504 162.701C92.1398 162.591 92.0584 162.33 92.1691 162.119C92.2802 161.909 92.54 161.829 92.7511 161.938L105.821 168.802C106.031 168.913 106.113 169.173 106.002 169.384C105.925 169.531 105.775 169.615 105.62 169.615Z" fill="#B7B7B7"/>
<path d="M110.017 169.362C109.95 169.362 109.881 169.346 109.817 169.313L96.7474 162.448C96.5368 162.338 96.4554 162.078 96.5661 161.866C96.6772 161.656 96.937 161.576 97.148 161.685L110.218 168.55C110.428 168.66 110.51 168.921 110.399 169.132C110.322 169.278 110.172 169.362 110.017 169.362Z" fill="#B7B7B7"/>
<path d="M115.995 169.742C115.927 169.742 115.859 169.726 115.795 169.692L102.725 162.828C102.514 162.718 102.433 162.457 102.544 162.246C102.655 162.036 102.914 161.956 103.125 162.065L116.195 168.93C116.405 169.04 116.487 169.3 116.376 169.512C116.299 169.658 116.149 169.742 115.995 169.742Z" fill="#B7B7B7"/>
<path d="M120.392 169.489C120.324 169.489 120.256 169.473 120.192 169.44L107.122 162.575C106.911 162.465 106.83 162.204 106.941 161.993C107.052 161.783 107.311 161.703 107.523 161.812L120.592 168.677C120.803 168.787 120.884 169.048 120.774 169.258C120.696 169.405 120.546 169.489 120.392 169.489Z" fill="#B7B7B7"/>
<path d="M159.879 55.2022L167.25 51.3645C170.189 52.1347 173.382 52.0916 176.483 51.0664C185.047 48.2372 189.696 39.0013 186.867 30.4373C184.038 21.8734 174.802 17.2246 166.238 20.0538C157.679 22.8818 153.03 32.1177 155.859 40.6817C156.677 43.1585 158.035 45.3115 159.756 47.0474L159.879 55.2022Z" fill="#FFD4D6"/>
<path d="M175.964 46.8938V47.963H175.042H168.818H167.86V44.9067L175.964 46.8938Z" fill="#8E8E8E"/>
<path d="M168.818 47.9629H175.042C175.042 47.9629 174.895 49.2504 171.91 49.2504C168.929 49.2504 168.818 47.9629 168.818 47.9629Z" fill="#B7B7B7"/>
<path d="M175.964 43.9849V46.8938L167.86 44.9067V43.9849H168.441H175.567H175.964Z" fill="#B7B7B7"/>
<path d="M181.56 31.1681C181.56 34.6891 179.656 37.7695 176.818 39.4266L175.567 43.9849H168.441L167.193 39.4266C164.356 37.7695 162.448 34.6896 162.448 31.1681C162.448 25.8904 166.728 21.6143 172.006 21.6143C177.283 21.6138 181.56 25.8904 181.56 31.1681Z" fill="#EC1D24"/>
<path d="M168.168 33.3841C168.132 33.1562 167.786 33.2527 167.821 33.4797C168.355 36.9038 168.889 40.3279 169.423 43.7525C169.459 43.9803 169.805 43.8839 169.77 43.6568C169.236 40.2327 168.702 36.8086 168.168 33.3841Z" fill="white"/>
<path d="M175.746 33.0365C175.17 36.6411 174.594 40.2461 174.018 43.8507C173.982 44.0773 174.328 44.1746 174.365 43.9463C174.941 40.3417 175.517 36.7367 176.093 33.1321C176.129 32.9055 175.783 32.8082 175.746 33.0365Z" fill="white"/>
<path d="M176.719 35.6402C176.449 36.3854 175.613 36.8889 174.827 36.7382C174.162 36.6107 173.655 36.1179 173.308 35.5501C173.632 35.0836 173.861 34.5413 173.985 34.039C174.115 33.5092 174.148 32.9561 174.072 32.4151C174.014 32.0033 173.82 31.4777 173.345 31.4135C172.79 31.3386 172.505 31.8977 172.415 32.3556C172.298 32.9466 172.299 33.5553 172.405 34.148C172.486 34.6038 172.641 35.075 172.867 35.5075C172.819 35.5661 172.773 35.6251 172.722 35.6802C172.414 36.0171 172.023 36.3298 171.548 36.3557C171.094 36.3806 170.778 36.0972 170.545 35.7457C170.785 35.4002 170.952 34.9919 171.038 34.5857C171.164 33.9882 171.217 33.3235 171.177 32.7144C171.146 32.2406 170.817 31.6841 170.262 31.8434C169.69 32.0076 169.595 32.7037 169.557 33.2042C169.515 33.7767 169.586 34.363 169.761 34.9096C169.849 35.1831 169.964 35.4704 170.112 35.7367C169.879 36.0063 169.576 36.2045 169.183 36.2695C168.101 36.4496 167.693 35.3417 167.482 34.4995C167.426 34.2751 167.079 34.3703 167.136 34.5951C167.369 35.529 167.824 36.6512 168.964 36.6469C169.513 36.6447 169.961 36.4035 170.304 36.0421C170.392 36.1605 170.487 36.2708 170.595 36.3664C171.009 36.7356 171.569 36.8019 172.079 36.596C172.46 36.4427 172.791 36.1782 173.069 35.8555C173.401 36.3604 173.848 36.7774 174.415 36.9928C175.477 37.3951 176.685 36.7838 177.065 35.7341C177.145 35.5178 176.798 35.4239 176.719 35.6402ZM169.944 32.9496C169.977 32.7196 170.022 32.4444 170.203 32.2811C170.423 32.0834 170.671 32.2126 170.767 32.4581C170.856 32.6851 170.821 32.96 170.813 33.1978C170.806 33.451 170.796 33.7043 170.771 33.9563C170.725 34.4319 170.599 34.9643 170.35 35.4011C169.972 34.6511 169.825 33.7801 169.944 32.9496ZM173.076 35.1185C172.689 34.26 172.562 33.2257 172.793 32.3069C172.845 32.0984 172.942 31.8512 173.169 31.7823C173.389 31.7155 173.538 31.9033 173.618 32.0842C173.782 32.4556 173.772 32.9242 173.74 33.3205C173.688 33.9774 173.467 34.6253 173.107 35.1805C173.097 35.1594 173.086 35.1392 173.076 35.1185Z" fill="white"/>
<path d="M67.697 57.6163L60.029 58.8052C58.2435 61.0103 55.8179 62.7433 52.9172 63.6879C44.9089 66.2953 36.3032 61.9175 33.6958 53.9092C31.0884 45.9009 35.4662 37.2956 43.4745 34.6878C51.4784 32.0817 60.0837 36.4595 62.6915 44.4678C63.4458 46.784 63.6147 49.1549 63.2804 51.4125L67.697 57.6163Z" fill="white"/>
<path d="M60.3131 44.2957L46.0347 58.5741L38.272 50.8067L42.0355 47.0431L46.0347 51.0419L56.5448 40.5317L60.3131 44.2957Z" fill="#EC1D24"/>
<path d="M149.587 91.5595L139.861 102.475L137.375 109.182L136.867 102.893L135.846 95.2295L135.949 93.8123L136.531 85.8045C134.916 85.9553 133.343 85.9122 131.866 85.6451C126.05 84.6113 121.614 80.1701 121.058 70.5599C120.718 64.7058 121.441 60.2949 122.419 57.1158C123.854 52.4464 125.848 50.4434 125.848 50.4434C125.848 50.4434 133.124 62.6296 142.764 63.9779C142.764 63.9779 144.53 59.8124 147.283 61.0401C150.04 62.2677 150.04 70.5556 145.672 71.6411C145.099 77.3745 145.934 83.2501 148.088 88.5958C148.502 89.6167 148.98 90.6419 149.587 91.5595Z" fill="#FF9971"/>
<path d="M140.076 75.2465C142.229 75.2465 143.975 73.5011 143.975 71.3481C143.975 69.1951 142.229 67.4497 140.076 67.4497C137.923 67.4497 136.178 69.1951 136.178 71.3481C136.178 73.5011 137.923 75.2465 140.076 75.2465Z" fill="#F9785A"/>
<path d="M141.386 84.8438L136.225 89.9956L136.531 85.8043C138.116 85.6622 139.749 85.3305 141.386 84.8438Z" fill="#2E303D"/>
<path d="M136.225 89.9957L135.95 93.8122C135.95 93.8122 130.358 96.3193 127.795 102.242C127.24 100.442 127.3 98.4731 127.701 96.6251C128.153 94.5575 129.006 92.6061 129.867 90.6806C130.604 89.0308 131.353 87.3724 131.866 85.645C133.343 85.9121 134.916 85.9552 136.531 85.8044L136.225 89.9957Z" fill="#2E303D"/>
<path d="M126.985 65.8301L129.204 75.1733C129.204 75.1733 125.34 76.3406 124.832 75.4102C124.323 74.4841 126.985 65.8301 126.985 65.8301Z" fill="#F9785A"/>
<path d="M181.354 93.5942C180.199 88.87 177.395 84.7821 174.201 81.1943C171.616 78.2897 168.742 75.6625 166.017 72.8927C165.163 71.5022 164.364 70.0802 163.652 68.6083C160.981 63.0989 159.581 57.0381 156.833 51.5717C154.08 46.1011 149.467 41.0095 143.419 40.0661C134.537 38.6791 126.059 46.5534 117.224 44.895C116.876 49.3878 118.728 54.0055 122.088 57.0123L122.419 57.1156C123.65 53.1096 125.289 51.0708 125.731 50.5711C126.263 53.2164 128.1 55.3922 129.917 57.3138C132.043 59.5611 134.435 61.6498 137.341 62.8094C138.595 63.31 139.928 63.6197 141.275 63.6744C141.765 63.8006 142.26 63.907 142.764 63.9777C142.764 63.9777 144.53 59.8122 147.283 61.0399C150.04 62.2675 150.04 70.5554 145.672 71.6409C145.099 77.3743 145.935 83.2499 148.088 88.5956C148.502 89.6165 148.98 90.6417 149.587 91.5592C149.962 92.1322 150.389 92.662 150.884 93.1272V93.1315C151.061 93.2952 151.246 93.4546 151.444 93.6054C155.23 96.4958 160.809 94.7641 165.267 96.4398C169.394 97.9905 171.953 102.333 172.625 106.692C173.301 111.051 172.422 115.484 171.552 119.809L171.63 119.834C171.716 119.576 171.798 119.313 171.879 119.055C177.667 117.006 181.095 110.732 181.37 104.558C182.203 100.966 182.231 97.179 181.354 93.5942ZM134.042 60.4674C132.831 59.5848 131.726 58.5613 130.682 57.4887C129.659 56.4385 128.653 55.3499 127.813 54.1451C127.18 53.2379 126.647 52.2498 126.327 51.1944C127.813 53.4443 132.65 60.1585 139.036 62.9051C137.24 62.4446 135.545 61.5624 134.042 60.4674ZM181.334 102.391C180.915 96.1503 177.896 90.3264 174.413 85.1021C172.04 81.5471 169.416 78.1406 167.082 74.5666C168.742 76.2095 170.429 77.8279 172.048 79.5074C175.468 83.056 178.707 87.0186 180.354 91.7303C181.544 95.138 181.839 98.8232 181.334 102.391Z" fill="#2E303D"/>
<path d="M125.36 65.9112C125.36 67.2561 124.603 68.3459 123.669 68.3459C122.734 68.3459 121.977 67.2556 121.977 65.9112C121.977 64.5668 122.734 63.4766 123.669 63.4766C124.603 63.4766 125.36 64.5664 125.36 65.9112Z" fill="#2E303D"/>
<path d="M134.127 65.5621C134.127 66.9069 133.37 67.9972 132.435 67.9972C131.501 67.9972 130.744 66.9069 130.744 65.5621C130.744 64.2173 131.501 63.1274 132.435 63.1274C133.37 63.1274 134.127 64.2173 134.127 65.5621Z" fill="#2E303D"/>
<path d="M124.75 60.2902C123.912 60.2458 123.066 60.3276 122.248 60.5103C121.807 60.6085 121.508 61.1426 121.646 61.57C121.795 62.0322 122.234 62.2768 122.705 62.1717C122.908 62.1265 123.113 62.0929 123.318 62.0623C123.794 62.0072 124.272 61.9878 124.75 62.0132C125.201 62.0373 125.632 61.5997 125.611 61.1517C125.59 60.6641 125.233 60.3156 124.75 60.2902Z" fill="#2E303D"/>
<path d="M135.058 61.0615C134.928 60.8612 134.762 60.7543 134.543 60.6656C133.571 60.2736 132.481 60.1203 131.439 60.2258C131.204 60.2495 131.002 60.3059 130.83 60.4782C130.68 60.6277 130.568 60.8728 130.577 61.0873C130.596 61.5151 130.958 61.9975 131.439 61.9488C131.87 61.9053 132.302 61.9131 132.732 61.9605C133.196 62.0328 133.649 62.1513 134.085 62.3271C134.278 62.405 134.577 62.3408 134.749 62.24C134.927 62.1354 135.098 61.9303 135.145 61.7253C135.195 61.5047 135.184 61.257 135.058 61.0615Z" fill="#2E303D"/>
<path d="M135.71 78.3349C136.335 79.8784 135.748 81.5717 134.399 82.1174C133.05 82.6632 131.45 81.8547 130.825 80.3113C130.201 78.7679 130.788 77.0745 132.137 76.5288C133.486 75.983 135.086 76.792 135.71 78.3349Z" fill="#E56B45"/>
<path d="M136.178 76.1899C136.178 76.1899 137.466 79.8729 133.753 81.1006C130.729 82.1 129.458 80.1142 129.118 79.4336L136.178 76.1899Z" fill="white"/>
<path d="M171.552 119.808L171.63 119.834C170.432 123.552 169.071 127.282 167.697 130.801V130.806C163.449 141.678 159.073 150.547 158.939 150.81C154.744 145.016 146.93 141.17 144.393 140.028C143.871 139.796 143.574 139.675 143.574 139.675L141.976 144.465C142.11 144.59 142.247 144.715 142.377 144.836L127.89 146.765V140.795C127.89 140.795 127.533 140.02 127.003 138.788C126.279 137.108 125.232 134.575 124.358 132.025C123.397 129.225 122.643 126.403 122.734 124.667C122.975 120.196 132.771 102.953 132.771 102.953C132.784 105.438 133.335 107.446 133.335 107.446C133.378 107.178 133.477 106.894 133.624 106.606C133.667 106.791 135.054 112.511 137.643 116.845L143.156 107.446C143.385 108.036 143.609 108.695 143.811 109.418C143.811 109.418 149.928 99.5281 150.884 93.1313C151.061 93.295 151.246 93.4544 151.444 93.6052C155.231 96.4956 160.809 94.7639 165.267 96.4396C169.394 97.9903 171.953 102.332 172.625 106.692C173.301 111.051 172.422 115.484 171.552 119.808Z" fill="#EC1D24"/>
<path d="M167.697 130.806L170.277 153.485H158.655L159.62 151.81C159.409 151.469 159.181 151.138 158.94 150.81C159.073 150.547 163.45 141.678 167.697 130.806Z" fill="#EC1D24"/>
<path d="M158.939 150.81C159.181 151.137 159.409 151.469 159.62 151.809L158.655 153.485L153.792 161.949C153.792 161.949 152.082 153.907 142.377 144.835C142.247 144.715 142.11 144.59 141.976 144.465L143.574 139.675C143.574 139.675 143.871 139.795 144.393 140.028C146.93 141.17 154.744 145.016 158.939 150.81Z" fill="url(#paint0_linear_30_225)"/>
<path d="M153.792 161.95C153.792 161.95 142.666 162.148 111.56 160.351C111.56 160.351 104.293 165.383 101.343 165.064C98.3877 164.745 92.5595 159.275 91.1208 157C89.6863 154.726 93.4383 151.331 93.4383 151.331C93.4383 151.331 93.477 149.617 95.8333 148.618C96.8844 148.174 99.7661 148.234 102.644 148.437C106.228 148.695 109.803 149.178 109.803 149.178L118.457 148.023L127.89 146.765L142.377 144.835C152.082 153.907 153.792 161.95 153.792 161.95Z" fill="#FF9971"/>
<path d="M150.884 93.127V93.1314C149.928 99.5282 143.811 109.418 143.811 109.418C143.608 108.695 143.384 108.036 143.156 107.446C141.679 103.62 139.861 102.475 139.861 102.475L149.587 91.5591C149.962 92.132 150.389 92.6618 150.884 93.127Z" fill="white"/>
<path d="M143.157 107.446L137.643 116.845C135.054 112.511 133.667 106.791 133.624 106.606C133.624 106.601 133.624 106.601 133.624 106.601C134.49 104.852 136.868 102.892 136.868 102.892L137.376 109.182L139.861 102.475C139.861 102.475 141.679 103.62 143.157 107.446Z" fill="#FFD7D8"/>
<path d="M132.754 130.138H136.144H139.474L139.741 143.905H129.803L129.601 130.138H132.754ZM137.372 137.926V131.461H131.97V137.926H137.372Z" fill="white"/>
<path d="M137.371 131.46H131.97V137.926H137.371V131.46Z" fill="#EC1D24"/>
<path d="M135.846 95.229L136.867 102.892C136.867 102.892 134.489 104.852 133.624 106.601C133.624 106.601 133.624 106.601 133.624 106.605C133.477 106.894 133.378 107.178 133.335 107.445C133.335 107.445 132.784 105.438 132.771 102.953C132.758 100.312 133.348 97.1244 135.846 95.229Z" fill="white"/>
<path d="M134.485 128.04L136.144 130.138H132.753L134.485 128.04Z" fill="#B7B7B7"/>
<path d="M127.796 102.242C130.359 96.319 135.95 93.812 135.95 93.812L135.847 95.2292C133.348 97.1246 132.758 100.312 132.771 102.953C132.771 102.953 122.976 120.196 122.734 124.667C122.644 126.403 123.398 129.225 124.358 132.025L123.773 132.171L119.568 130.129L119.702 129.858C119.702 129.858 125.052 110.896 127.206 103.831C127.374 103.276 127.572 102.746 127.796 102.242Z" fill="#EC1D24"/>
<path d="M127.89 140.795V146.765L118.457 148.023L89.7456 147.964C84.8866 150.053 82.374 150.165 80.4959 149.23C79.7291 149.282 76.8538 149.6 76.087 149.647C76.0138 150.474 75.7596 151.211 75.0747 151.211C73.5197 151.211 71.7837 147.739 71.7837 147.739C71.7837 147.739 71.3056 151.211 69.7462 150.375C68.1912 149.535 68.609 144.784 68.609 144.784C68.609 144.784 65.0768 148.247 64.5986 146.942C64.1205 145.632 66.4552 139.417 72.2619 138.878C78.0685 138.34 91.1809 140.674 91.1809 140.674L117.186 136.324L127.003 138.788C127.533 140.02 127.89 140.795 127.89 140.795Z" fill="#FF9971"/>
<path d="M127.003 138.788L117.186 136.324C116.583 131.495 118.185 129.458 118.185 129.458L119.568 130.13L124.358 132.025C125.233 134.575 126.279 137.108 127.003 138.788Z" fill="url(#paint1_linear_30_225)"/>
<path d="M107.241 138.737C107.857 139.159 108.025 140.003 107.651 140.65C104.614 140.258 103.89 138.875 103.89 138.875C104.14 138.453 104.635 137.953 105.122 137.927C105.717 137.901 106.492 138.224 107.241 138.737Z" fill="#ED694F"/>
<path d="M107.651 140.65L105.816 143.816C103.4 143.467 102.107 141.869 102.107 141.869L103.891 138.875C103.891 138.875 104.614 140.258 107.651 140.65Z" fill="#FF9076"/>
<path d="M105.816 143.816L102.956 148.752L98.0708 148.649L102.107 141.869C102.107 141.869 103.399 143.467 105.816 143.816Z" fill="#EC1D24"/>
<path d="M152.88 109.817C151.698 113.54 150.516 117.263 149.334 120.986C148.157 124.691 146.98 128.397 145.804 132.103C145.137 134.203 144.469 136.304 143.803 138.404C143.719 138.669 144.134 138.783 144.218 138.519C145.4 134.796 146.582 131.073 147.764 127.351C148.941 123.645 150.118 119.939 151.295 116.234C151.962 114.133 152.629 112.032 153.296 109.932C153.38 109.667 152.964 109.554 152.88 109.817Z" fill="#2E303D"/>
<path d="M167.483 131.418C165.007 136.343 162.731 141.368 160.664 146.479C160.081 147.92 159.515 149.369 158.966 150.823C158.867 151.083 159.283 151.195 159.381 150.938C161.317 145.816 163.46 140.773 165.807 135.826C166.473 134.422 167.156 133.025 167.855 131.635C167.979 131.388 167.607 131.17 167.483 131.418Z" fill="#2E303D"/>
<path d="M132.184 103.452C130.135 107.25 128.037 111.025 126.049 114.855C124.255 118.309 122.67 122.016 122.684 125.978C122.691 128.037 123.14 130.097 124.162 131.897C124.299 132.138 124.671 131.921 124.534 131.679C122.674 128.405 122.842 124.415 123.914 120.913C124.492 119.024 125.318 117.224 126.216 115.468C127.155 113.634 128.154 111.831 129.132 110.018C130.273 107.901 131.415 105.785 132.556 103.669C132.688 103.426 132.316 103.208 132.184 103.452Z" fill="#2E303D"/>
<path d="M143.136 107.948C140.808 113.212 138.481 118.477 136.154 123.741C135.587 125.024 135.019 126.307 134.452 127.589C133.581 122.342 133.208 117.015 133.353 111.698C133.396 110.12 133.485 108.543 133.617 106.97C133.64 106.694 133.209 106.695 133.186 106.97C132.716 112.564 132.81 118.203 133.472 123.778C133.653 125.303 133.877 126.824 134.14 128.337C134.138 128.377 134.148 128.413 134.165 128.446C134.188 128.516 134.237 128.554 134.296 128.565C134.383 128.599 134.481 128.582 134.53 128.471C134.532 128.468 134.533 128.464 134.535 128.46C134.549 128.44 134.56 128.417 134.566 128.392C136.882 123.153 139.197 117.916 141.513 112.678C142.178 111.174 142.842 109.669 143.507 108.166C143.619 107.914 143.248 107.695 143.136 107.948Z" fill="#2E303D"/>
<path d="M127.586 146.868C124.533 147.167 121.479 147.467 118.426 147.766C118.152 147.793 118.15 148.224 118.426 148.197C121.48 147.897 124.533 147.598 127.586 147.299C127.86 147.272 127.863 146.841 127.586 146.868Z" fill="#2E303D"/>
<path d="M84.9913 147.668C82.4226 148.481 79.77 149.022 77.0859 149.26C76.7779 149.288 76.47 149.311 76.1615 149.331C75.9026 149.347 75.6347 149.378 75.378 149.325C75.1815 149.284 74.9623 149.191 74.9756 148.954C74.9924 148.66 75.3663 148.385 75.5598 148.202C76.4432 147.364 77.3905 146.597 78.3933 145.907C79.5271 145.126 80.728 144.447 81.9785 143.873C82.2301 143.757 82.0113 143.385 81.761 143.5C79.3285 144.619 77.0855 146.14 75.1531 147.994C74.7908 148.342 74.3166 148.857 74.6642 149.38C74.9136 149.755 75.4452 149.798 75.8527 149.781C77.3095 149.721 78.7706 149.532 80.2064 149.283C81.8648 148.996 83.5013 148.593 85.1058 148.084C85.369 148 85.2566 147.584 84.9913 147.668Z" fill="#2E303D"/>
<path d="M72.0023 147.684C71.4358 145.782 71.4281 143.758 71.9816 141.851C72.0591 141.585 71.6434 141.471 71.5663 141.737C70.9926 143.714 70.9995 145.826 71.587 147.799C71.6658 148.064 72.0815 147.951 72.0023 147.684Z" fill="#2E303D"/>
<path d="M70.3809 141.156C70.2707 141.09 70.1565 141.141 70.0863 141.233C69.2842 142.28 68.7372 143.513 68.4959 144.81C68.4455 145.081 68.8608 145.198 68.9112 144.925C69.1468 143.658 69.6754 142.473 70.4581 141.45C70.5296 141.357 70.4723 141.21 70.3809 141.156Z" fill="#2E303D"/>
<path d="M136.692 102.879C135.448 104.111 134.28 105.417 133.194 106.791C133.024 107.006 133.326 107.313 133.498 107.095C134.584 105.722 135.752 104.415 136.997 103.183C137.194 102.988 136.889 102.684 136.692 102.879Z" fill="#2E303D"/>
<path d="M143.878 108.976C143.147 106.517 141.877 104.244 140.169 102.331C139.984 102.124 139.68 102.43 139.864 102.636C141.523 104.493 142.754 106.704 143.463 109.09C143.541 109.355 143.957 109.242 143.878 108.976Z" fill="#2E303D"/>
<path d="M137.719 109.54C137.707 109.264 137.276 109.262 137.288 109.54C137.37 111.45 137.452 113.359 137.533 115.269C137.545 115.545 137.976 115.547 137.964 115.269C137.882 113.359 137.801 111.45 137.719 109.54Z" fill="#2E303D"/>
<path d="M139.278 110.639C139.159 110.394 138.838 110.26 138.583 110.36C138.506 110.39 138.437 110.437 138.376 110.493C138.369 110.499 138.36 110.501 138.353 110.509C138.341 110.523 138.335 110.542 138.324 110.557C138.304 110.582 138.278 110.602 138.263 110.631C138.254 110.646 138.254 110.664 138.248 110.68C138.241 110.694 138.239 110.709 138.234 110.724C138.217 110.777 138.205 110.829 138.203 110.885C138.203 110.891 138.2 110.896 138.2 110.902C138.2 110.918 138.207 110.932 138.208 110.947C138.211 110.982 138.207 111.018 138.217 111.052C138.22 111.066 138.23 111.077 138.235 111.09C138.244 111.116 138.258 111.138 138.27 111.162C138.29 111.2 138.31 111.237 138.338 111.27C138.344 111.278 138.346 111.287 138.353 111.294C138.367 111.31 138.388 111.319 138.405 111.333C138.427 111.351 138.443 111.375 138.468 111.39C138.477 111.396 138.49 111.396 138.5 111.402C138.527 111.416 138.557 111.423 138.587 111.433C138.622 111.445 138.655 111.461 138.693 111.465C138.829 111.485 138.971 111.46 139.083 111.38C139.196 111.298 139.281 111.186 139.319 111.05C139.358 110.911 139.341 110.768 139.278 110.639Z" fill="#2E303D"/>
<path d="M29.413 148.769L28.1336 159.314L50.1671 157.957V162.35L18.0754 165.943L9.37402 159.314L19.2987 135.824L22.8654 127.381L31.7262 129.699L30.6148 138.878L29.413 148.769Z" fill="#8E8E8E"/>
<path d="M41.1854 69.0649L56.0768 146.662H49.6887L34.7197 69.0649H41.1854Z" fill="#8E8E8E"/>
<path d="M50.1672 157.957L28.1338 159.314L29.4131 148.769L50.1672 157.957Z" fill="#B7B7B7"/>
<path d="M34.72 69.0649L49.6889 146.662L30.6148 138.878L31.7262 129.699L22.8655 127.381L19.2988 135.824L17.7179 135.152L0.470215 69.0649H34.72Z" fill="#B7B7B7"/>
<path d="M46.5458 129.42C45.72 124.562 44.8723 119.707 44.003 114.856C43.1294 109.982 42.2338 105.111 41.3163 100.244C40.4035 95.4012 39.4692 90.5625 38.5129 85.7285C37.5571 80.8941 36.5792 76.0639 35.5803 71.2386C35.4554 70.6355 35.33 70.032 35.2047 69.4294C35.1483 69.158 34.733 69.273 34.7894 69.5439C35.7935 74.3685 36.777 79.1973 37.7384 84.0304C38.6999 88.8636 39.6398 93.701 40.5578 98.5427C41.4804 103.409 42.3816 108.278 43.2603 113.152C44.1352 118.002 44.9881 122.856 45.8195 127.713C46.6509 132.57 47.4607 137.431 48.2485 142.296C48.3472 142.904 48.445 143.512 48.5432 144.12C48.5871 144.393 49.0024 144.277 48.9584 144.005C48.1758 139.14 47.372 134.278 46.5458 129.42Z" fill="#2E303D"/>
<path d="M29.0659 129.514C27.7555 134.186 26.3926 138.842 24.9758 143.482C23.5642 148.106 22.1001 152.713 20.5838 157.303C19.7257 159.899 18.8509 162.49 17.9601 165.075C17.8696 165.338 18.2857 165.451 18.3753 165.19C19.9562 160.603 21.4854 155.999 22.9616 151.377C24.4322 146.772 25.8503 142.151 27.2154 137.514C27.9877 134.89 28.7429 132.262 29.4812 129.629C29.5561 129.361 29.1409 129.247 29.0659 129.514Z" fill="#2E303D"/>
<defs>
<linearGradient id="paint0_linear_30_225" x1="141.976" y1="150.812" x2="159.62" y2="150.812" gradientUnits="userSpaceOnUse">
<stop stop-color="#EC1D24"/>
<stop offset="1" stop-color="#A71318"/>
</linearGradient>
<linearGradient id="paint1_linear_30_225" x1="117.05" y1="134.123" x2="127.003" y2="134.123" gradientUnits="userSpaceOnUse">
<stop stop-color="#EC1D24"/>
<stop offset="1" stop-color="#A71318"/>
</linearGradient>
</defs>
</svg>
