<svg width="77" height="77" viewBox="0 0 77 77" fill="none" xmlns="http://www.w3.org/2000/svg">
<path d="M46.5167 51.5653L52.9918 47.7275L46.5167 43.8876L40.0393 40.0458V43.9053H21.757V51.5476H40.0393V55.4072L46.5167 51.5653Z" fill="black"/>
<path d="M76.9927 34.7299C76.9927 28.977 72.4793 25.8949 69.4118 24.4582C69.4072 24.4562 69.4026 24.4542 69.398 24.4522C68.9816 24.2574 68.5814 24.0822 68.2344 23.9464C68.1835 23.9268 68.1303 23.9071 68.0794 23.8894C67.2142 23.5607 66.6358 23.4091 66.6358 23.4091L66.6335 23.417C66.504 23.3796 66.3767 23.3521 66.2449 23.3166L62.599 33.0373C62.1942 31.3073 61.6853 29.4258 61.1046 27.9123C62.4279 27.678 63.4249 26.6782 63.4249 25.4836C63.4249 24.1118 62.1202 22.9998 60.5055 22.9998H57.0493C55.4369 22.9998 54.1299 24.1098 54.1299 25.4836C54.1299 26.7471 55.2403 27.7784 56.6769 27.9339C56.0523 29.5557 55.5179 31.5966 55.1015 33.4211L51.3076 23.3147C51.1781 23.3501 51.0485 23.3776 50.919 23.415L50.9166 23.4072C50.9166 23.4072 50.3406 23.5587 49.4754 23.8874C49.4222 23.9071 49.369 23.9268 49.3181 23.9445C48.9711 24.0803 48.5732 24.2554 48.1545 24.4503C48.1499 24.4522 48.1429 24.4562 48.1429 24.4562C45.0731 25.891 40.5598 28.9751 40.5598 34.7279C40.5598 35.7356 40.5529 36.8201 40.5529 37.9498L57.0401 47.7256L43.7615 55.5982C44.6961 56.6787 45.9013 57.3321 47.4605 57.3695C48.9711 64.4844 50.4447 70.7962 51.0092 73.1796C51.5065 75.2718 51.6777 76.3857 53.2855 76.3857C54.8933 76.3857 58.7774 76.3857 58.7774 76.3857C58.7774 76.3857 62.6638 76.3857 64.2693 76.3857C65.8771 76.3857 66.0529 75.2718 66.5456 73.1796C67.1124 70.7962 68.5837 64.4844 70.0943 57.3695C77.4993 57.1904 76.9927 43.2107 76.9927 34.7299Z" fill="black"/>
<path d="M58.7751 19.6815C65.1632 19.6815 70.3418 15.2756 70.3418 9.84073C70.3418 4.40585 65.1632 0 58.7751 0C52.387 0 47.2084 4.40585 47.2084 9.84073C47.2084 15.2756 52.387 19.6815 58.7751 19.6815Z" fill="black"/>
<path d="M19.4434 41.9371H32.4676C32.4676 41.0258 32.4629 40.15 32.4629 39.3332C32.4629 34.22 28.4539 31.4823 25.7242 30.201C25.7126 30.1971 25.701 30.1892 25.6895 30.1852C25.3286 30.016 24.9816 29.8644 24.6808 29.7464C24.6253 29.7227 24.5652 29.705 24.5073 29.6814C23.7532 29.396 23.2466 29.2642 23.2466 29.2642L23.2443 29.2701C20.6417 28.5241 17.9051 28.3529 16.2556 28.3529C14.6039 28.3529 11.8695 28.5241 9.26702 29.2701L9.26471 29.2642C9.26471 29.2642 8.7604 29.396 8.00393 29.6814C7.94841 29.705 7.88827 29.7227 7.83275 29.7464C7.5297 29.8644 7.18501 30.016 6.82181 30.1852C6.81256 30.1892 6.79868 30.1971 6.78711 30.201C4.05737 31.4803 0.0506494 34.22 0.0506494 39.3332C0.0506494 46.8771 -0.39814 59.3119 6.18564 59.4732C7.53201 65.8008 8.83905 71.416 9.34336 73.5356C9.7829 75.3955 9.93789 76.3875 11.3675 76.3875C12.7972 76.3875 16.2533 76.3875 16.2533 76.3875C16.2533 76.3875 19.7072 76.3875 21.1368 76.3875C22.5664 76.3875 22.7214 75.3955 23.1633 73.5356C23.6653 71.4179 24.9746 65.8008 26.3187 59.4732C29.2405 59.4004 30.7742 56.9166 31.5792 53.5157H19.4365V41.9371H19.4434Z" fill="black"/>
<path d="M16.2579 25.9462C21.9395 25.9462 26.5454 22.0277 26.5454 17.1939C26.5454 12.3601 21.9395 8.44153 16.2579 8.44153C10.5763 8.44153 5.97046 12.3601 5.97046 17.1939C5.97046 22.0277 10.5763 25.9462 16.2579 25.9462Z" fill="black"/>
</svg>
