<svg width="92" height="78" viewBox="0 0 92 78" fill="none" xmlns="http://www.w3.org/2000/svg">
<path d="M34.6797 15.3867C34.7913 15.4384 34.903 15.49 35.018 15.5432C36.1304 16.1168 36.7902 17.0986 37.1953 18.1289C37.2119 18.3387 37.2188 18.5492 37.2194 18.7595C37.2202 18.8885 37.221 19.0175 37.2219 19.1504C37.2218 19.2922 37.2218 19.434 37.2218 19.58C37.2224 19.7306 37.2231 19.8812 37.2238 20.0364C37.2257 20.5434 37.2264 21.0503 37.2271 21.5573C37.2282 21.9199 37.2294 22.2824 37.2307 22.645C37.2341 23.7348 37.236 24.8246 37.2376 25.9144C37.2384 26.4277 37.2394 26.9411 37.2403 27.4545C37.2434 29.1616 37.246 30.8686 37.2473 32.5756C37.2476 33.0186 37.248 33.4616 37.2483 33.9045C37.2484 34.0146 37.2485 34.1247 37.2486 34.2381C37.2501 36.0208 37.2546 37.8034 37.2605 39.586C37.2664 41.4169 37.2697 43.2477 37.2702 45.0785C37.2706 46.1062 37.2722 47.1339 37.2768 48.1616C37.281 49.1286 37.2817 50.0957 37.2799 51.0628C37.2798 51.4174 37.2809 51.7721 37.2834 52.1267C37.2866 52.6116 37.2853 53.0963 37.2829 53.5812C37.2849 53.721 37.2869 53.8607 37.2889 54.0047C37.2776 54.9682 37.0031 55.6702 36.4766 56.5195C36.4035 56.6502 36.3305 56.781 36.2552 56.9157C35.8835 57.382 35.5383 57.6775 34.8723 57.8041C33.9755 57.8982 33.0812 57.8918 32.1791 57.8721C31.6923 57.862 31.2065 57.8627 30.7195 57.8647C30.4088 57.8623 30.0981 57.8592 29.7874 57.8555C29.6427 57.8556 29.498 57.8557 29.3489 57.8558C28.5824 57.834 28.294 57.7961 27.6802 57.3687C26.6186 56.2364 25.9729 55.2344 26.0771 53.7583C26.1884 53.0661 26.3886 52.6293 26.9531 52.1016C27.1965 51.9696 27.4439 51.8428 27.6943 51.7207C28.2292 51.4562 28.378 51.3588 28.6938 50.8828C28.7912 50.4215 28.7912 50.4215 28.5591 49.9973C28.1341 49.5905 27.9417 49.559 27.3125 49.5117C26.0927 49.8264 25.1071 50.4215 24.4375 51.3398C23.9 52.2366 23.6264 53.0819 23.5391 54.082C21.3561 54.0419 19.5907 53.4866 18.0045 52.1938C16.4449 50.6272 16.1798 48.8991 16.3516 46.9219C16.7564 45.4583 17.6537 44.2021 19.0469 43.2656C19.9767 42.8072 20.9479 42.4356 21.9443 42.0945C22.5067 41.9233 22.5067 41.9233 22.8203 41.4375C22.7584 40.7507 22.7584 40.7507 22.2812 40.2187C20.485 39.9903 18.9812 40.7776 17.5666 41.6398C16.832 42.138 16.1711 42.607 15.6328 43.2656C14.2282 43.1413 13.1875 42.4451 12.2363 41.5857C11.9661 41.2913 11.728 40.9947 11.5 40.6758C11.4324 40.5823 11.3647 40.4888 11.295 40.3925C10.0817 38.5348 9.93703 36.4287 10.6072 34.4112C11.3337 32.5808 12.6691 31.0462 14.7344 30.1641C16.6752 29.5079 18.2026 29.3041 20.1657 29.9474C20.8804 30.2581 21.4462 30.6755 22.0321 31.1376C22.5734 31.4471 22.8984 31.4466 23.5391 31.3828C23.9194 31.1603 23.9194 31.1603 24.0781 30.7734C24.1313 30.187 24.0386 29.8511 23.5938 29.394C21.5664 27.7614 19.2174 27.4014 16.5312 27.2695C15.9717 25.4397 16.087 23.8934 17.1826 22.2136C18.2867 20.7646 19.8049 19.9259 21.7267 19.4072C23.4379 19.1355 25.0387 19.3208 26.5937 19.957C26.7248 20.0104 26.8559 20.0639 26.991 20.1189C27.8785 20.534 28.4148 21.0733 28.9943 21.7721C29.3036 22.1055 29.5776 22.3302 30.0078 22.5469C30.6365 22.4296 30.9882 22.325 31.4453 21.9375C31.4708 20.8801 30.8415 20.2453 30.0078 19.5C28.968 18.691 27.853 18.0559 26.5937 17.5195C27.1753 16.3484 27.9987 15.4932 29.3789 14.9392C31.0773 14.483 33.1716 14.583 34.6797 15.3867Z" fill="black"/>
<path d="M46.4155 13.4824C46.5563 13.4974 46.697 13.5123 46.842 13.5277C51.2339 14.0463 55.3471 15.7271 58.5781 18.2812C58.75 18.4146 58.9219 18.5479 59.0989 18.6853C63.1463 21.9582 65.6207 26.7217 65.8155 31.453C65.9485 36.9114 64.0953 41.536 59.6563 45.5507C59.1966 45.9401 58.7307 46.3234 58.2634 46.706C56.6375 48.0425 55.1634 49.3383 54.0859 51.0351C54.0274 51.1264 53.9688 51.2178 53.9084 51.3118C52.6295 53.3536 52.0177 55.4625 51.5703 57.7383C48.8427 57.7383 46.115 57.7383 43.3047 57.7383C43.2925 52.2808 43.2829 46.8234 43.2772 41.366C43.2765 40.7219 43.2758 40.0777 43.2751 39.4336C43.2749 39.3053 43.2748 39.1771 43.2747 39.045C43.2723 36.9679 43.2681 34.8909 43.2631 32.8139C43.2581 30.683 43.2551 28.5521 43.254 26.4212C43.2532 25.1061 43.2509 23.791 43.2465 22.4759C43.2437 21.5744 43.2428 20.6729 43.2435 19.7713C43.2439 19.251 43.2433 18.7307 43.2404 18.2104C43.2378 17.6463 43.2384 17.0823 43.2399 16.5182C43.2383 16.3537 43.2367 16.1892 43.2351 16.0197C43.241 15.1901 43.2724 14.5718 43.8438 13.8632C44.691 13.35 45.422 13.3672 46.4155 13.4824ZM47.7969 18.4336C47.5786 18.9023 47.5713 19.1053 47.8081 19.5696C48.2505 20.0619 48.746 20.2357 49.4028 20.4616C53.3594 21.926 56.0405 24.3754 57.6797 27.7265C58.2727 29.0523 58.5089 30.3575 58.5879 31.7662C58.6403 32.4108 58.7009 32.6908 59.1783 33.2198C59.6453 33.5699 59.6453 33.5699 60.3076 33.5156C61.0069 33.346 61.0069 33.346 61.4531 32.9062C61.9692 29.5606 60.2864 26.0042 58.0278 23.3276C55.845 20.9317 53.3283 19.4265 50.1328 18.1289C50.0142 18.0786 49.8956 18.0283 49.7734 17.9765C48.6595 17.9049 48.6595 17.9049 47.7969 18.4336Z" fill="black"/>
<path d="M27.7277 59.6974C28.0639 59.6961 28.0639 59.6961 28.407 59.6947C28.6531 59.6946 28.8992 59.6944 29.1453 59.6942C29.4063 59.6935 29.6674 59.6928 29.9284 59.6919C30.6357 59.6899 31.3429 59.689 32.0502 59.6883C32.4927 59.6878 32.9353 59.6872 33.3778 59.6865C34.7644 59.6844 36.1509 59.683 37.5375 59.6824C39.1345 59.6817 40.7314 59.679 42.3284 59.6746C43.5653 59.6713 44.8021 59.6698 46.039 59.6696C46.7766 59.6694 47.5142 59.6685 48.2518 59.6658C48.9462 59.6633 49.6405 59.663 50.3349 59.6643C50.5886 59.6644 50.8422 59.6638 51.0959 59.6622C54.3808 59.6438 54.3808 59.6438 55.6477 60.5043C55.8141 60.681 55.8141 60.681 55.9839 60.8614C56.099 60.9792 56.2141 61.097 56.3327 61.2184C56.9963 62.0293 56.8832 63.0381 56.7812 63.9844C56.5785 64.4594 56.3096 64.8413 55.8828 65.2032C55.4711 65.2179 55.0589 65.2217 54.6469 65.2215C54.4508 65.2217 54.4508 65.2217 54.2507 65.2219C53.8092 65.2221 53.3678 65.2213 52.9263 65.2204C52.6112 65.2204 52.296 65.2204 51.9809 65.2205C51.1226 65.2206 50.2643 65.2197 49.406 65.2186C48.51 65.2177 47.6141 65.2176 46.7181 65.2174C45.0203 65.2169 43.3224 65.2157 41.6246 65.2141C39.6921 65.2124 37.7597 65.2116 35.8273 65.2108C31.851 65.2092 27.8747 65.2065 23.8984 65.2032C23.2094 64.2052 22.8163 63.4187 23.0856 62.2378C23.461 61.187 24.042 60.5408 25.1604 59.9925C25.9824 59.7116 26.8521 59.6994 27.7277 59.6974Z" fill="black"/>
<path d="M24.4892 67.0711C24.7258 67.072 24.9623 67.0728 25.206 67.0737C25.3379 67.0729 25.4699 67.0721 25.6058 67.0713C26.0483 67.0698 26.4902 67.0748 26.9326 67.0798C27.2496 67.0801 27.5666 67.0799 27.8836 67.0794C28.7445 67.0792 29.6053 67.0845 30.4662 67.0909C31.3657 67.0966 32.2653 67.0972 33.1648 67.0983C34.8684 67.1011 36.572 67.1086 38.2755 67.1178C40.2149 67.128 42.1543 67.133 44.0937 67.1376C48.0834 67.1472 52.0729 67.1632 56.0625 67.1836C56.7775 68.204 56.9644 68.8759 56.7813 70.0781C56.4712 71.0101 55.7702 71.703 54.8047 72.2109C54.0335 72.4658 53.391 72.5543 52.5653 72.5564C52.22 72.5583 52.22 72.5583 51.8677 72.5603C51.6148 72.5602 51.3619 72.5601 51.109 72.5599C50.8409 72.5608 50.5728 72.5618 50.3047 72.563C49.5781 72.5657 48.8516 72.5664 48.125 72.5666C47.6704 72.5668 47.2158 72.5675 46.7612 72.5683C45.1735 72.5711 43.5858 72.5723 41.998 72.5721C40.5211 72.5719 39.0442 72.5751 37.5672 72.5799C36.2968 72.5839 35.0264 72.5856 33.7559 72.5854C32.9982 72.5853 32.2406 72.5861 31.4829 72.5894C30.7696 72.5923 30.0564 72.5923 29.3431 72.5901C29.0825 72.5898 28.8219 72.5905 28.5613 72.5924C27.0879 72.6022 25.725 72.578 24.4375 71.9063C23.5464 71.1584 23.0094 70.3329 22.9951 69.248C23.0607 68.2941 23.232 67.3105 24.4892 67.0711Z" fill="black"/>
<path d="M29.8281 74.4961C36.5287 74.4961 43.2292 74.4961 50.1328 74.4961C49.9152 75.6029 49.4994 76.3484 48.463 77.0669C47.4187 77.6677 46.7012 77.8666 45.4268 77.8746C45.2303 77.8761 45.2303 77.8761 45.0299 77.8777C44.5964 77.8807 44.1629 77.8824 43.7293 77.884C43.581 77.8846 43.4326 77.8852 43.2797 77.8858C42.494 77.889 41.7082 77.8912 40.9225 77.8926C40.113 77.8943 39.3037 77.8995 38.4943 77.9056C37.8701 77.9096 37.246 77.9109 36.6218 77.9114C36.3235 77.9121 36.0253 77.9139 35.7271 77.9167C32.5643 77.9449 32.5643 77.9449 31.1828 76.9056C31.0693 76.7923 30.9558 76.679 30.8389 76.5623C30.7226 76.4493 30.6063 76.3364 30.4865 76.2201C29.9875 75.6311 29.8281 75.2243 29.8281 74.4961Z" fill="black"/>
<path d="M62.7671 47.5693C63.4509 47.6872 63.6065 47.769 64.1004 48.1494C64.2262 48.2462 64.352 48.343 64.4817 48.4427C65.098 48.934 65.7011 49.4353 66.2984 49.9432C66.4275 50.0525 66.5567 50.1619 66.6898 50.2745C66.9598 50.5034 67.2296 50.7324 67.4992 50.9616C67.9133 51.3135 68.3283 51.6646 68.7435 52.0156C69.0066 52.2388 69.2697 52.462 69.5327 52.6853C69.657 52.7904 69.7813 52.8954 69.9093 53.0037C70.0234 53.1009 70.1374 53.1981 70.255 53.2982C70.3556 53.3836 70.4562 53.469 70.5598 53.557C70.9387 53.9091 70.9791 54.1008 71.0439 54.5867C70.9766 55.1484 70.9766 55.1484 70.606 55.5959C70.0781 55.9102 70.0781 55.9102 69.4829 56.0244C68.7991 55.9065 68.6435 55.8248 68.1496 55.4444C68.0238 55.3476 67.898 55.2508 67.7683 55.1511C67.152 54.6598 66.5489 54.1585 65.9516 53.6506C65.8225 53.5412 65.6933 53.4319 65.5602 53.3192C65.2902 53.0904 65.0204 52.8613 64.7508 52.6321C64.3367 52.2802 63.9217 51.9292 63.5065 51.5782C63.2434 51.355 62.9803 51.1317 62.7173 50.9084C62.593 50.8034 62.4687 50.6983 62.3407 50.5901C62.2266 50.4929 62.1126 50.3957 61.995 50.2956C61.8944 50.2102 61.7938 50.1247 61.6902 50.0367C61.3113 49.6846 61.2709 49.4929 61.2061 49.0071C61.2734 48.4453 61.2734 48.4453 61.644 47.9978C62.1719 47.6836 62.1719 47.6836 62.7671 47.5693Z" fill="black"/>
<path d="M71.4275 31.2083C71.7316 31.2069 71.7316 31.2069 72.0417 31.2054C72.3702 31.2051 72.3702 31.2051 72.7054 31.2049C72.9302 31.2043 73.1551 31.2038 73.3868 31.2033C73.8627 31.2025 74.3387 31.2021 74.8146 31.2022C75.4239 31.2022 76.0331 31.2001 76.6424 31.1975C77.2242 31.1954 77.8061 31.1955 78.388 31.1953C78.6066 31.1942 78.8253 31.1931 79.0505 31.192C79.3554 31.1927 79.3554 31.1927 79.6665 31.1934C79.8452 31.1932 80.0239 31.193 80.2081 31.1928C80.6967 31.2318 80.9864 31.3136 81.3985 31.5351C81.8117 32.0256 81.8573 32.4683 81.7578 33.0586C81.4618 33.4536 81.3314 33.6028 80.8594 33.8203C80.0533 33.9353 79.2543 33.9233 78.4385 33.9161C78.2022 33.9165 77.9659 33.9168 77.7224 33.9172C77.2232 33.9176 76.7241 33.9154 76.2249 33.9112C75.5857 33.906 74.9469 33.907 74.3077 33.9098C73.6968 33.9118 73.086 33.909 72.4751 33.9066C72.2459 33.9073 72.0166 33.9081 71.7803 33.9089C71.5674 33.9065 71.3545 33.904 71.1352 33.9016C70.9479 33.9006 70.7607 33.8997 70.5678 33.8987C69.9559 33.8007 69.7421 33.6189 69.3594 33.2109C69.1925 32.6406 69.2689 32.1347 69.5952 31.6208C70.1502 31.1852 70.7077 31.2107 71.4275 31.2083Z" fill="black"/>
<path d="M44.2031 0.152389C44.6855 0.47609 44.8987 0.65794 45.0143 1.17693C45.0155 1.33566 45.0166 1.49439 45.0177 1.65794C45.0206 1.83843 45.0234 2.01893 45.0263 2.2049C45.025 2.49651 45.025 2.49651 45.0236 2.79401C45.0248 2.99422 45.0259 3.19444 45.027 3.40072C45.0289 3.82424 45.0281 4.24768 45.0254 4.67119C45.0224 5.21289 45.0266 5.75435 45.0329 6.29603C45.0378 6.81401 45.036 7.33192 45.0349 7.84991C45.0373 8.04401 45.0396 8.23811 45.0421 8.43809C45.0235 9.9339 45.0235 9.9339 44.4993 10.4062C43.9106 10.7253 43.6315 10.7732 42.9453 10.6641C42.4602 10.3899 42.1292 10.1943 41.8672 9.75004C41.8481 9.47719 41.8404 9.20374 41.8382 8.93042C41.8365 8.75904 41.8348 8.58767 41.833 8.41111C41.8319 8.13214 41.8319 8.13214 41.8307 7.84753C41.8297 7.65703 41.8286 7.46653 41.8276 7.27025C41.8259 6.86645 41.8246 6.46267 41.824 6.05887C41.823 5.54249 41.8187 5.02618 41.8136 4.50983C41.8094 4.01644 41.8091 3.52306 41.8082 3.02966C41.806 2.84461 41.8038 2.65955 41.8015 2.46889C41.802 2.29608 41.8026 2.12327 41.8031 1.94522C41.8025 1.79356 41.8018 1.64191 41.8011 1.48566C41.8789 0.992012 42.0624 0.705195 42.4062 0.304733C42.9686 0.0663585 43.5941 0.0462023 44.2031 0.152389Z" fill="black"/>
<path d="M70.2578 9.29297C70.8195 9.67626 70.9463 9.93038 71.0911 10.5243C70.9108 11.4638 70.1863 11.9375 69.4029 12.5862C69.2419 12.723 69.081 12.8597 68.9151 13.0007C68.5742 13.2891 68.2324 13.5762 67.8882 13.8618C67.4482 14.227 67.0132 14.5961 66.5796 14.9668C66.1641 15.321 65.7451 15.6721 65.3262 16.0235C65.1706 16.156 65.0151 16.2885 64.8548 16.425C64.6336 16.6074 64.6336 16.6074 64.4081 16.7934C64.2796 16.9008 64.1511 17.0083 64.0187 17.1189C63.5157 17.424 63.1445 17.486 62.5312 17.5195C61.8971 17.2752 61.6638 17.1019 61.2734 16.6055C61.1724 16.196 61.1724 16.196 61.2734 15.6914C61.5092 15.4195 61.5092 15.4195 61.821 15.1287C61.9355 15.0215 62.05 14.9143 62.168 14.8039C63.1458 13.9122 64.1414 13.0365 65.1475 12.1677C65.4258 11.9261 65.7025 11.6832 65.9775 11.439C66.378 11.0837 66.7835 10.7331 67.1905 10.3832C67.3118 10.2737 67.4332 10.1642 67.5582 10.0514C68.3904 9.34857 69.0727 9.05777 70.2578 9.29297Z" fill="black"/>
</svg>
