<svg width="97" height="77" viewBox="0 0 97 77" fill="none" xmlns="http://www.w3.org/2000/svg">
<path fill-rule="evenodd" clip-rule="evenodd" d="M56.6761 43.0269C55.0591 41.6653 52.9988 40.7381 50.756 40.3625C48.5131 39.9869 46.1883 40.1798 44.0756 40.9167C41.9629 41.6536 40.1572 42.9015 38.8867 44.5025C37.6163 46.1036 36.9382 47.9859 36.9382 49.9115C36.9382 51.837 37.6163 53.7193 38.8867 55.3204C40.1572 56.9215 41.9629 58.1693 44.0756 58.9062C46.1883 59.6432 48.5131 59.836 50.756 59.4604C52.9988 59.0848 55.0591 58.1576 56.6761 56.7961C58.8444 54.9701 60.0626 52.4936 60.0626 49.9115C60.0626 47.3293 58.8444 44.8528 56.6761 43.0269ZM60.819 39.5384C63.256 41.5901 64.9156 44.2042 65.5882 47.0501C66.2607 49.8961 65.9158 52.846 64.5972 55.5269C63.2785 58.2078 61.0454 60.4993 58.1801 62.1114C55.3148 63.7236 51.9461 64.5841 48.5 64.5841C45.0539 64.5841 41.6852 63.7236 38.8199 62.1114C35.9546 60.4993 33.7215 58.2078 32.4028 55.5269C31.0842 52.846 30.7393 49.8961 31.4119 47.0501C32.0844 44.2042 33.744 41.5901 36.181 39.5384C39.4484 36.7876 43.8796 35.2423 48.5 35.2423C53.1204 35.2423 57.5516 36.7876 60.819 39.5384ZM41.613 52.2238C41.3574 52.0084 41.2139 51.7164 41.214 51.412C41.2141 51.1076 41.3578 50.8156 41.6135 50.6004C41.8692 50.3852 42.216 50.2643 42.5775 50.2644C42.9391 50.2645 43.2858 50.3855 43.5414 50.6008L45.3359 52.1127L53.4548 45.2755C53.7105 45.0597 54.0575 44.9383 54.4195 44.938C54.7815 44.9377 55.1288 45.0585 55.3851 45.2738C55.6413 45.4891 55.7854 45.7814 55.7858 46.0862C55.7862 46.391 55.6427 46.6834 55.387 46.8992L46.3039 54.5475C46.0482 54.7627 45.7014 54.8837 45.3397 54.8837C44.9781 54.8837 44.6313 54.7627 44.3756 54.5475L41.613 52.2238ZM50.537 66.7917L49.955 68.0267L54.1144 76.852L56.6141 72.7044C56.7633 72.4554 57.0155 72.261 57.3231 72.1576C57.6307 72.0543 57.9726 72.0492 58.2844 72.1432L63.4884 73.7229L59.0798 64.3537C56.4913 65.7017 53.5721 66.5354 50.5438 66.7917H50.537ZM37.9202 64.3537L33.5057 73.7229L38.7098 72.1432C39.0217 72.0487 39.364 72.0534 39.672 72.1566C39.98 72.2598 40.2326 72.4544 40.3821 72.7036L42.8798 76.852L47.5882 66.8604C44.164 66.7347 40.8353 65.8717 37.9202 64.3537ZM68.6013 48.7345C68.2475 44.4486 65.976 40.4353 62.2452 37.5046C58.5144 34.5739 53.6022 32.9441 48.5 32.9441C43.3978 32.9441 38.4856 34.5739 34.7548 37.5046C31.024 40.4353 28.7525 44.4486 28.3987 48.7345H12.7196C12.4307 47.3145 11.6259 46.0049 10.4161 44.9861C9.20622 43.9674 7.65093 43.2897 5.96453 43.0465V10.7095C7.65126 10.4663 9.20682 9.78841 10.4167 8.76935C11.6266 7.75029 12.4312 6.44025 12.7196 5.0199H84.2804C84.5692 6.43996 85.3739 7.74963 86.5838 8.76837C87.7936 9.78712 89.349 10.4648 91.0355 10.7079V43.0465C89.349 43.2896 87.7936 43.9673 86.5838 44.986C85.3739 46.0048 84.5692 47.3144 84.2804 48.7345H68.6013ZM28.3938 51.0304C28.4643 51.9486 28.6236 52.8604 28.8701 53.7568H0V0H97V53.7568H68.1289C68.3757 52.8605 68.5354 51.9487 68.6062 51.0304H85.5307C85.7098 51.0304 85.8871 51.0007 86.0525 50.943C86.2179 50.8853 86.3682 50.8007 86.4947 50.694C86.6213 50.5874 86.7217 50.4608 86.7901 50.3215C86.8585 50.1821 86.8937 50.0328 86.8936 49.8821C86.9 48.6542 87.4821 47.4783 88.5133 46.6101C89.5444 45.742 90.9411 45.252 92.3993 45.2469C92.5783 45.2469 92.7556 45.2172 92.9211 45.1594C93.0865 45.1017 93.2368 45.0171 93.3633 44.9105C93.4899 44.8038 93.5902 44.6772 93.6587 44.5379C93.7271 44.3986 93.7623 44.2492 93.7621 44.0985V9.65754C93.7621 9.35311 93.6186 9.06114 93.363 8.8458C93.1075 8.63046 92.7608 8.50937 92.3993 8.50916C90.9416 8.504 89.5454 8.01436 88.5143 7.14676C87.4832 6.27916 86.9007 5.1038 86.8936 3.87641C86.8936 3.57198 86.75 3.28001 86.4945 3.06467C86.2389 2.84933 85.8923 2.72824 85.5307 2.72803H11.4693C11.1086 2.72932 10.7632 2.85089 10.5087 3.06611C10.2542 3.28133 10.1113 3.57269 10.1113 3.87641C10.1049 5.10423 9.52275 6.28021 8.49158 7.14834C7.46041 8.01647 6.06371 8.50645 4.60556 8.51161C4.24402 8.51182 3.89738 8.63291 3.64182 8.84825C3.38626 9.06359 3.24271 9.35556 3.24271 9.65999V44.0985C3.24258 44.2492 3.27774 44.3986 3.34617 44.5379C3.4146 44.6772 3.51497 44.8038 3.64154 44.9105C3.7681 45.0171 3.91838 45.1017 4.0838 45.1594C4.24921 45.2172 4.42651 45.2469 4.60556 45.2469C6.06371 45.252 7.46041 45.742 8.49158 46.6101C9.52275 47.4783 10.1049 48.6542 10.1113 49.8821C10.111 50.1858 10.2538 50.4773 10.5084 50.6926C10.763 50.9079 11.1085 51.0294 11.4693 51.0304H28.3938ZM35.0762 11.4218H61.9238C62.2855 11.4218 62.6324 11.3008 62.8882 11.0854C63.144 10.8701 63.2877 10.578 63.2877 10.2734C63.2877 9.96882 63.144 9.67672 62.8882 9.46136C62.6324 9.246 62.2855 9.12501 61.9238 9.12501H35.0762C34.7145 9.12501 34.3676 9.246 34.1118 9.46136C33.856 9.67672 33.7124 9.96882 33.7124 10.2734C33.7124 10.578 33.856 10.8701 34.1118 11.0854C34.3676 11.3008 34.7145 11.4218 35.0762 11.4218ZM18.1691 19.5176H78.8309C79.013 19.5217 79.1943 19.4951 79.3639 19.4392C79.5336 19.3834 79.6882 19.2995 79.8187 19.1925C79.9492 19.0855 80.053 18.9575 80.1238 18.8162C80.1946 18.6749 80.2311 18.5231 80.2311 18.3697C80.2311 18.2163 80.1946 18.0645 80.1238 17.9231C80.053 17.7818 79.9492 17.6539 79.8187 17.5469C79.6882 17.4399 79.5336 17.356 79.3639 17.3001C79.1943 17.2443 79.013 17.2176 78.8309 17.2217H18.1691C17.987 17.2176 17.8057 17.2443 17.6361 17.3001C17.4664 17.356 17.3118 17.4399 17.1813 17.5469C17.0508 17.6539 16.947 17.7818 16.8762 17.9231C16.8054 18.0645 16.7689 18.2163 16.7689 18.3697C16.7689 18.5231 16.8054 18.6749 16.8762 18.8162C16.947 18.9575 17.0508 19.0855 17.1813 19.1925C17.3118 19.2995 17.4664 19.3834 17.6361 19.4392C17.8057 19.4951 17.987 19.5217 18.1691 19.5176ZM18.1691 27.6135H78.8309C79.013 27.6176 79.1943 27.5909 79.3639 27.5351C79.5336 27.4792 79.6882 27.3953 79.8187 27.2883C79.9492 27.1813 80.053 27.0534 80.1238 26.9121C80.1946 26.7708 80.2311 26.6189 80.2311 26.4655C80.2311 26.3122 80.1946 26.1603 80.1238 26.019C80.053 25.8777 79.9492 25.7498 79.8187 25.6428C79.6882 25.5357 79.5336 25.4518 79.3639 25.396C79.1943 25.3401 79.013 25.3135 78.8309 25.3176H18.1691C17.987 25.3135 17.8057 25.3401 17.6361 25.396C17.4664 25.4518 17.3118 25.5357 17.1813 25.6428C17.0508 25.7498 16.947 25.8777 16.8762 26.019C16.8054 26.1603 16.7689 26.3122 16.7689 26.4655C16.7689 26.6189 16.8054 26.7708 16.8762 26.9121C16.947 27.0534 17.0508 27.1813 17.1813 27.2883C17.3118 27.3953 17.4664 27.4792 17.6361 27.5351C17.8057 27.5909 17.987 27.6176 18.1691 27.6135ZM48.5 37.8796C51.3263 37.8796 54.0892 38.5853 56.4392 39.9075C58.7892 41.2297 60.6208 43.109 61.7024 45.3077C62.7839 47.5065 63.0669 49.9259 62.5154 52.26C61.9639 54.5942 60.6028 56.7382 58.6042 58.421C56.6056 60.1038 54.0593 61.2497 51.2873 61.7139C48.5152 62.1781 45.6419 61.9397 43.0308 61.0288C40.4196 60.118 38.1879 58.5756 36.6178 56.5967C35.0477 54.6178 34.2098 52.2913 34.21 49.9115C34.2102 46.7203 35.7159 43.66 38.3958 41.4036C41.0756 39.1472 44.7102 37.8796 48.5 37.8796Z" fill="black"/>
</svg>
