<svg width="27" height="28" viewBox="0 0 27 28" fill="none" xmlns="http://www.w3.org/2000/svg">
<path d="M22.5 9.5L15.75 2.75H6.75C6.15326 2.75 5.58097 2.98705 5.15901 3.40901C4.73705 3.83097 4.5 4.40326 4.5 5V23C4.5 23.5967 4.73705 24.169 5.15901 24.591C5.58097 25.0129 6.15326 25.25 6.75 25.25H20.25C20.8467 25.25 21.419 25.0129 21.841 24.591C22.2629 24.169 22.5 23.5967 22.5 23V9.5ZM10.125 21.875H7.875V11.75H10.125V21.875ZM14.625 21.875H12.375V15.125H14.625V21.875ZM19.125 21.875H16.875V18.5H19.125V21.875ZM15.75 10.625H14.625V5L20.25 10.625H15.75Z" fill="url(#paint0_linear_26_534)"/>
<defs>
<linearGradient id="paint0_linear_26_534" x1="4.5" y1="14" x2="22.5" y2="14" gradientUnits="userSpaceOnUse">
<stop stop-color="#EC1D24"/>
<stop offset="1" stop-color="#A71318"/>
</linearGradient>
</defs>
</svg>
