<svg width="14" height="14" viewBox="0 0 14 14" fill="none" xmlns="http://www.w3.org/2000/svg">
<path d="M13.3536 12.6464L10.2243 9.51764C11.1313 8.42871 11.5836 7.03201 11.487 5.6181C11.3905 4.20419 10.7526 2.88193 9.70599 1.92637C8.65938 0.970822 7.28468 0.455551 5.86784 0.487751C4.451 0.519951 3.10112 1.09714 2.09901 2.09926C1.0969 3.10137 0.519707 4.45125 0.487507 5.86808C0.455307 7.28492 0.970578 8.65963 1.92613 9.70623C2.88168 10.7528 4.20395 11.3908 5.61786 11.4873C7.03177 11.5838 8.42846 11.1315 9.5174 10.2245L12.6461 13.3539C12.6926 13.4003 12.7478 13.4372 12.8085 13.4623C12.8691 13.4875 12.9342 13.5004 12.9999 13.5004C13.0656 13.5004 13.1307 13.4875 13.1913 13.4623C13.252 13.4372 13.3072 13.4003 13.3536 13.3539C13.4001 13.3074 13.437 13.2523 13.4621 13.1916C13.4872 13.1309 13.5002 13.0658 13.5002 13.0001C13.5002 12.9344 13.4872 12.8694 13.4621 12.8087C13.437 12.748 13.4001 12.6928 13.3536 12.6464ZM1.4999 6.00014C1.4999 5.11013 1.76382 4.2401 2.25829 3.50008C2.75275 2.76006 3.45556 2.18328 4.27782 1.84268C5.10009 1.50209 6.00489 1.41298 6.8778 1.58661C7.75072 1.76024 8.55254 2.18883 9.18188 2.81816C9.81122 3.4475 10.2398 4.24932 10.4134 5.12224C10.5871 5.99515 10.498 6.89995 10.1574 7.72222C9.81676 8.54449 9.23999 9.24729 8.49996 9.74176C7.75994 10.2362 6.88991 10.5001 5.9999 10.5001C4.80683 10.4988 3.66301 10.0243 2.81938 9.18066C1.97575 8.33704 1.50122 7.19321 1.4999 6.00014Z" fill="#A3A3A3"/>
</svg>
