<svg width="14" height="13" viewBox="0 0 14 13" fill="none" xmlns="http://www.w3.org/2000/svg">
<path d="M13.4125 1.09564C13.3355 0.917836 13.208 0.766576 13.0458 0.660675C12.8835 0.554774 12.6937 0.498905 12.5 0.500016H1.49998C1.30644 0.500398 1.11717 0.556935 0.955124 0.66277C0.793081 0.768606 0.665233 0.91919 0.587088 1.09626C0.508943 1.27332 0.483861 1.46926 0.514883 1.6603C0.545906 1.85134 0.6317 2.02928 0.761858 2.17252L0.766858 2.17814L4.99998 6.69814V11.5C4.99994 11.681 5.04902 11.8586 5.14198 12.0139C5.23494 12.1692 5.36831 12.2963 5.52785 12.3818C5.6874 12.4672 5.86714 12.5078 6.04792 12.4991C6.2287 12.4904 6.40373 12.4328 6.55436 12.3325L8.55436 10.9988C8.69146 10.9074 8.80388 10.7837 8.88162 10.6384C8.95936 10.4932 9.00002 10.331 8.99998 10.1663V6.69814L13.2337 2.17814L13.2387 2.17252C13.3703 2.02993 13.4569 1.85176 13.4878 1.66025C13.5187 1.46873 13.4925 1.27236 13.4125 1.09564ZM8.13623 6.16127C8.04974 6.25297 8.00107 6.37396 7.99998 6.50002V10.1663L5.99998 11.5V6.50002C6.00002 6.37305 5.95176 6.25083 5.86498 6.15814L1.49998 1.50002H12.5L8.13623 6.16127Z" fill="url(#paint0_linear_408_38)"/>
<defs>
<linearGradient id="paint0_linear_408_38" x1="0.501953" y1="6.50012" x2="13.5004" y2="6.50012" gradientUnits="userSpaceOnUse">
<stop stop-color="#EC1D24"/>
<stop offset="1" stop-color="#A71318"/>
</linearGradient>
</defs>
</svg>
